<svg width="1260" height="1260" viewBox="0 0 1260 1260" fill="none" xmlns="http://www.w3.org/2000/svg">
<rect width="1260" height="1260" rx="30" fill="url(#paint0_linear_363_2021)"/>
<path d="M280 1196.52V1037.48C280 1017.66 290.957 1007.03 311.099 1007.03H366.367C431.143 1007.03 465.786 1045.38 465.786 1116.92C465.786 1188.62 431.143 1226.97 366.367 1226.97H311.099C290.957 1226.97 280 1216.34 280 1196.52ZM333.335 1159.78C333.335 1173.49 344.445 1184.6 358.149 1184.6C394.727 1184.6 411.323 1163.65 411.323 1116.92C411.323 1070.35 394.727 1049.25 358.149 1049.25C344.445 1049.25 333.335 1060.35 333.335 1074.06V1159.78Z" fill="#EEF3FD"/>
<path d="M471.452 1196.52V1037.48C471.452 1017.82 482.247 1007.03 502.389 1007.03H602.13C614.376 1007.03 623.078 1015.73 623.078 1028.3C623.078 1040.71 614.376 1049.25 602.13 1049.25H547.909C534.783 1049.25 524.142 1059.89 524.142 1073.01C524.142 1086.14 534.783 1096.78 547.909 1096.78H598.263C609.704 1096.78 617.438 1104.84 617.438 1116.44C617.438 1128.2 609.704 1135.77 598.263 1135.77H548.634C535.108 1135.77 524.142 1146.74 524.142 1160.27C524.142 1173.79 535.108 1184.76 548.634 1184.76H601.486C614.376 1184.76 623.078 1193.14 623.078 1205.87C623.078 1218.76 614.376 1226.97 601.325 1226.97H502.389C482.247 1226.97 471.452 1216.34 471.452 1196.52Z" fill="#EEF3FD"/>
<path d="M620.203 1181.7C620.203 1168.81 629.549 1159.78 640.989 1159.78C648.723 1159.78 655.33 1162.68 664.192 1170.58C677.405 1182.99 693.357 1189.75 709.632 1189.75C732.674 1189.75 745.081 1181.37 745.081 1166.23C745.081 1153.98 735.413 1146.41 712.21 1141.41L681.917 1134.48C642.278 1126.11 622.781 1105.64 622.781 1071.96C622.781 1029.75 655.652 1003 707.215 1003C735.413 1003 760.872 1011.22 775.696 1025.24C785.203 1033.94 790.198 1043.61 790.198 1053.43C790.198 1065.2 781.819 1073.25 769.412 1073.25C762.483 1073.25 755.555 1070.19 748.787 1063.75C737.508 1051.34 724.456 1044.89 707.859 1044.89C688.362 1044.89 676.116 1053.76 676.116 1067.61C676.116 1079.7 685.462 1088.24 705.926 1092.27L736.541 1098.87C777.469 1107.09 797.288 1127.23 797.288 1160.59C797.288 1203.93 762 1231.81 706.892 1231.81C676.599 1231.81 649.69 1223.11 634.705 1208.93C625.359 1200.07 620.203 1190.72 620.203 1181.7Z" fill="#EEF3FD"/>
<path d="M956.674 1228.26C946.684 1228.26 938.627 1223.27 930.248 1211.67L889.38 1155.41C882.769 1146.31 869.57 1145.33 861.68 1153.34C858.328 1156.75 856.449 1161.33 856.449 1166.11V1199.9C856.449 1218.27 847.104 1228.59 830.346 1228.59C813.105 1228.59 803.114 1217.95 803.114 1199.9V1034.1C803.114 1015.73 812.621 1005.42 829.701 1005.42C846.781 1005.42 856.449 1015.89 856.449 1034.1V1095.41C856.449 1096.52 857.352 1097.42 858.465 1097.42C859.029 1097.42 859.567 1097.19 859.949 1096.77L933.31 1017.02C940.561 1009.12 946.684 1005.74 954.257 1005.74C967.47 1005.74 977.621 1016.05 977.621 1029.1C977.621 1035.71 975.043 1040.71 967.953 1048.44L941.546 1076.99C926.861 1092.86 925.545 1116.94 938.411 1134.32L971.337 1178.8C979.877 1190.24 982.294 1195.71 982.294 1203.13C982.294 1217.95 971.82 1228.26 956.674 1228.26Z" fill="#EEF3FD"/>
<path d="M667.027 89C849.128 89 998.077 237.513 1009.27 425.095L1009.5 425.095C1009.65 425.094 1009.8 425.094 1009.95 425.094C1110.64 425.094 1192.26 510.498 1192.26 615.85C1192.26 721.202 1110.64 806.606 1009.95 806.606H667.027H324.105C182.661 806.606 68 686.633 68 538.639C68 390.645 182.661 270.672 324.105 270.672C338.636 270.672 352.884 271.939 366.754 274.371C425.192 163.841 537.756 89 667.027 89Z" fill="url(#paint1_linear_363_2021)" stroke="black" stroke-width="5" stroke-linejoin="round"/>
<path d="M317.283 789.619C329.125 789.752 340.967 789.879 352.809 789.999C459.385 791.079 565.961 791.619 672.537 791.619C779.113 791.619 885.689 791.079 992.266 789.999C1004.11 789.879 1015.95 789.752 1027.79 789.619C1015.95 789.486 1004.11 789.359 992.266 789.239C885.689 788.159 779.113 787.619 672.537 787.619C565.961 787.619 459.385 788.159 352.809 789.239C340.967 789.359 329.125 789.486 317.283 789.619Z" fill="black"/>
<path d="M315.783 782.797C325.674 782.83 335.564 782.862 345.455 782.892C434.47 783.162 523.485 783.297 612.499 783.297C701.514 783.297 790.529 783.162 879.544 782.892C889.435 782.862 899.325 782.83 909.216 782.797C899.325 782.764 889.435 782.732 879.544 782.702C790.529 782.432 701.514 782.297 612.499 782.297C523.485 782.297 434.47 782.432 345.455 782.702C335.564 782.732 325.674 782.764 315.783 782.797Z" fill="black"/>
<path d="M315.533 777.104C324.441 777.12 333.35 777.136 342.258 777.151C422.431 777.286 502.604 777.354 582.778 777.354C662.951 777.354 743.125 777.286 823.298 777.151C832.206 777.136 841.114 777.12 850.022 777.104C841.114 777.087 832.206 777.071 823.298 777.056C743.125 776.921 662.951 776.854 582.778 776.854C502.604 776.854 422.431 776.921 342.258 777.056C333.35 777.071 324.441 777.087 315.533 777.104Z" fill="black"/>
<path d="M317.283 886.619C329.125 886.752 340.967 886.879 352.809 886.999C459.385 888.079 565.961 888.619 672.537 888.619C779.113 888.619 885.689 888.079 992.266 886.999C1004.11 886.879 1015.95 886.752 1027.79 886.619C1015.95 886.486 1004.11 886.359 992.266 886.239C885.689 885.159 779.113 884.619 672.537 884.619C565.961 884.619 459.385 885.159 352.809 886.239C340.967 886.359 329.125 886.486 317.283 886.619Z" fill="black"/>
<path d="M315.783 879.797C325.674 879.83 335.564 879.862 345.455 879.892C434.47 880.162 523.485 880.297 612.499 880.297C701.514 880.297 790.529 880.162 879.544 879.892C889.435 879.862 899.325 879.83 909.216 879.797C899.325 879.764 889.435 879.732 879.544 879.702C790.529 879.432 701.514 879.297 612.499 879.297C523.485 879.297 434.47 879.432 345.455 879.702C335.564 879.732 325.674 879.764 315.783 879.797Z" fill="black"/>
<path d="M315.533 874.104C324.441 874.12 333.35 874.136 342.258 874.151C422.431 874.286 502.604 874.354 582.778 874.354C662.951 874.354 743.125 874.286 823.298 874.151C832.206 874.136 841.114 874.12 850.022 874.104C841.114 874.087 832.206 874.071 823.298 874.056C743.125 873.921 662.951 873.854 582.778 873.854C502.604 873.854 422.431 873.921 342.258 874.056C333.35 874.071 324.441 874.087 315.533 874.104Z" fill="black"/>
<path d="M981.643 429.61C981.643 429.61 981.643 429.61 981.643 429.61C978.248 428.91 974.601 428.636 971.103 428.615C939.038 429.389 908.345 443.201 882.845 462.248C857.309 481.522 837.304 508.448 827.626 538.865C826.529 542.264 825.579 545.605 824.713 549.091C824.713 549.091 824.713 549.091 824.713 549.091C825.708 545.64 826.778 542.339 827.986 538.988C838.682 509.001 858.816 482.916 884.055 463.84C909.285 445.015 939.282 430.854 971.107 428.995C974.586 428.896 978.224 429.042 981.643 429.61Z" fill="black"/>
<mask id="path-17-outside-1_363_2021" maskUnits="userSpaceOnUse" x="274" y="929" width="713" height="99" fill="black">
<rect fill="white" x="274" y="929" width="713" height="99"/>
<path d="M279 982.637V973.361C279 961.034 282.428 951.403 289.284 944.467C296.184 937.489 305.87 934 318.343 934C324.27 934 329.732 934.815 334.73 936.444C339.729 938.074 343.864 940.372 347.137 943.339C349.349 945.344 351.074 947.496 352.312 949.794C353.551 952.051 354.17 954.161 354.17 956.125C354.17 958.632 353.329 960.658 351.649 962.204C350.012 963.708 347.867 964.461 345.213 964.461C343.444 964.461 341.829 964.126 340.37 963.458C338.954 962.747 337.384 961.557 335.659 959.885C334.023 957.921 332.364 956.334 330.683 955.122C329.047 953.91 327.322 953.012 325.508 952.427C323.739 951.8 321.793 951.487 319.67 951.487C313.699 951.487 309.077 953.471 305.804 957.441C302.575 961.41 300.96 967.03 300.96 974.301V981.696C300.96 989.385 302.553 995.276 305.737 999.371C308.966 1003.42 313.61 1005.45 319.67 1005.45C321.837 1005.45 323.85 1005.16 325.707 1004.57C327.609 1003.99 329.401 1003.09 331.081 1001.88C332.806 1000.62 334.443 999.058 335.991 997.177C337.76 995.464 339.33 994.273 340.702 993.605C342.073 992.895 343.599 992.539 345.279 992.539C347.933 992.539 350.101 993.312 351.781 994.858C353.462 996.363 354.302 998.368 354.302 1000.88C354.302 1003.34 353.462 1005.87 351.781 1008.46C350.101 1011.05 347.823 1013.37 344.948 1015.42C341.675 1017.8 337.782 1019.66 333.271 1020.99C328.804 1022.33 323.828 1023 318.343 1023C305.693 1023 295.962 1019.49 289.151 1012.47C282.384 1005.41 279 995.464 279 982.637Z"/>
<path d="M379.58 1021.75C376.042 1021.75 373.299 1020.79 371.353 1018.86C369.451 1016.9 368.5 1014.14 368.5 1010.59V946.096C368.5 942.503 369.451 939.745 371.353 937.823C373.255 935.901 375.953 934.94 379.448 934.94C382.942 934.94 385.64 935.922 387.542 937.886C389.488 939.808 390.461 942.545 390.461 946.096V1010.59C390.461 1014.14 389.51 1016.9 387.608 1018.86C385.75 1020.79 383.074 1021.75 379.58 1021.75Z"/>
<path d="M429.738 976.056H444.002C448.381 976.056 451.809 975.032 454.286 972.985C456.762 970.895 458.001 967.887 458.001 963.959C458.001 960.115 456.762 957.169 454.286 955.122C451.809 953.033 448.381 951.988 444.002 951.988H429.738V976.056ZM429.738 1010.59C429.738 1014.14 428.809 1016.9 426.951 1018.86C425.093 1020.79 422.417 1021.75 418.923 1021.75C415.385 1021.75 412.643 1020.79 410.696 1018.86C408.75 1016.9 407.777 1014.14 407.777 1010.59V950.546C407.777 945.449 409.016 941.688 411.493 939.265C414.014 936.8 417.862 935.567 423.037 935.567H446.988C457.161 935.567 465.166 937.949 471.005 942.712C476.843 947.434 479.762 953.889 479.762 962.079C479.762 967.469 478.413 972.212 475.715 976.306C473.061 980.359 469.28 983.472 464.37 985.645L476.18 1005.39C477.374 1007.35 477.971 1009.52 477.971 1011.91C477.971 1014.75 476.954 1017.09 474.919 1018.93C472.929 1020.72 470.319 1021.62 467.09 1021.62C464.215 1021.62 461.871 1020.97 460.058 1019.68C458.244 1018.34 456.453 1016.02 454.684 1012.72L442.741 990.722H429.738V1010.59Z"/>
<path d="M515.324 976.056H529.588C533.967 976.056 537.395 975.032 539.872 972.985C542.349 970.895 543.587 967.887 543.587 963.959C543.587 960.115 542.349 957.169 539.872 955.122C537.395 953.033 533.967 951.988 529.588 951.988H515.324V976.056ZM515.324 1010.59C515.324 1014.14 514.395 1016.9 512.537 1018.86C510.679 1020.79 508.004 1021.75 504.509 1021.75C500.971 1021.75 498.229 1020.79 496.282 1018.86C494.336 1016.9 493.363 1014.14 493.363 1010.59V950.546C493.363 945.449 494.602 941.688 497.079 939.265C499.6 936.8 503.448 935.567 508.623 935.567H532.574C542.747 935.567 550.752 937.949 556.591 942.712C562.429 947.434 565.348 953.889 565.348 962.079C565.348 967.469 563.999 972.212 561.301 976.306C558.647 980.359 554.866 983.472 549.956 985.645L561.766 1005.39C562.96 1007.35 563.557 1009.52 563.557 1011.91C563.557 1014.75 562.54 1017.09 560.505 1018.93C558.515 1020.72 555.905 1021.62 552.676 1021.62C549.801 1021.62 547.457 1020.97 545.644 1019.68C543.83 1018.34 542.039 1016.02 540.27 1012.72L528.327 990.722H515.324V1010.59Z"/>
<path d="M597.924 973.486V983.827C597.924 988.465 598.632 992.456 600.047 995.799C601.507 999.1 603.586 1001.65 606.284 1003.45C608.982 1005.2 612.211 1006.08 615.97 1006.08C619.73 1006.08 622.937 1005.2 625.59 1003.45C628.288 1001.65 630.345 999.1 631.761 995.799C633.22 992.456 633.95 988.465 633.95 983.827V973.486C633.95 968.764 633.22 964.732 631.761 961.389C630.345 958.005 628.288 955.414 625.59 953.618C622.937 951.821 619.73 950.923 615.97 950.923C612.211 950.923 608.982 951.821 606.284 953.618C603.586 955.414 601.507 958.005 600.047 961.389C598.632 964.732 597.924 968.764 597.924 973.486ZM575.964 983.827V973.611C575.964 965.38 577.556 958.318 580.741 952.427C583.925 946.493 588.481 941.939 594.408 938.763C600.379 935.588 607.566 934 615.97 934C624.374 934 631.539 935.588 637.466 938.763C643.437 941.939 647.993 946.493 651.134 952.427C654.318 958.318 655.91 965.38 655.91 973.611V983.827C655.91 991.975 654.318 998.974 651.134 1004.82C647.993 1010.67 643.437 1015.17 637.466 1018.3C631.539 1021.43 624.374 1023 615.97 1023C603.32 1023 593.479 1019.53 586.446 1012.6C579.458 1005.62 575.964 996.028 575.964 983.827Z"/>
<path d="M690.742 1010.97C690.742 1014.35 689.857 1017 688.088 1018.93C686.363 1020.81 683.886 1021.75 680.657 1021.75C677.473 1021.75 674.974 1020.79 673.16 1018.86C671.347 1016.94 670.44 1014.31 670.44 1010.97V947.099C670.44 938.993 674.067 934.94 681.321 934.94C683.754 934.94 685.81 935.567 687.491 936.82C689.216 938.074 691.162 940.205 693.329 943.213L723.849 986.209H724.711V945.72C724.711 942.294 725.596 939.641 727.365 937.761C729.134 935.88 731.611 934.94 734.796 934.94C738.024 934.94 740.546 935.901 742.359 937.823C744.172 939.704 745.079 942.336 745.079 945.72V1010.21C745.079 1017.9 741.651 1021.75 734.796 1021.75C732.319 1021.75 730.196 1021.16 728.426 1019.99C726.657 1018.82 724.645 1016.67 722.389 1013.54L691.604 969.976H690.742V1010.97Z"/>
<path d="M762.86 1009.27V947.413C762.86 943.569 763.966 940.644 766.177 938.638C768.389 936.591 771.551 935.567 775.665 935.567H798.421C811.779 935.567 821.93 939.202 828.874 946.473C835.862 953.743 839.357 964.356 839.357 978.312C839.357 992.268 835.862 1002.9 828.874 1010.21C821.93 1017.48 811.779 1021.12 798.421 1021.12H775.665C771.551 1021.12 768.389 1020.12 766.177 1018.11C763.966 1016.06 762.86 1013.12 762.86 1009.27ZM784.82 1004.64H795.038C802.601 1004.64 808.13 1002.53 811.624 998.306C815.162 994.044 816.932 987.379 816.932 978.312C816.932 969.245 815.162 962.601 811.624 958.381C808.086 954.119 802.557 951.988 795.038 951.988H784.82V1004.64Z"/>
<path d="M912.072 1012.47C912.072 1015.02 911.187 1017.11 909.418 1018.74C907.693 1020.33 905.459 1021.12 902.717 1021.12H865.298C861.184 1021.12 858.022 1020.12 855.81 1018.11C853.643 1016.06 852.559 1013.12 852.559 1009.27V946.096C852.559 942.503 853.51 939.745 855.412 937.823C857.314 935.901 860.012 934.94 863.506 934.94C867.001 934.94 869.699 935.922 871.601 937.886C873.547 939.808 874.52 942.545 874.52 946.096V1003.82H902.717C905.459 1003.82 907.693 1004.64 909.418 1006.27C911.187 1007.85 912.072 1009.92 912.072 1012.47Z"/>
<path d="M944.846 1021.75C941.441 1021.75 938.72 1020.79 936.686 1018.86C934.651 1016.94 933.678 1014.43 933.767 1011.34L934.231 988.967L910.877 952.615C909.772 950.818 908.953 949.272 908.422 947.977C907.936 946.64 907.693 945.365 907.693 944.154C907.693 941.354 908.622 939.098 910.479 937.385C912.381 935.671 914.836 934.815 917.844 934.815C920.188 934.815 922.178 935.4 923.815 936.57C925.495 937.74 927.066 939.662 928.525 942.336L944.382 970.979H945.178L961.499 942.399C962.87 939.85 964.44 937.949 966.21 936.695C968.023 935.442 970.014 934.815 972.181 934.815C975.012 934.815 977.356 935.671 979.213 937.385C981.071 939.098 982 941.229 982 943.777C982 945.031 981.712 946.368 981.137 947.789C980.562 949.209 979.634 950.923 978.351 952.928L955.329 988.967L955.727 1011.34C955.86 1014.43 954.909 1016.94 952.874 1018.86C950.84 1020.79 948.164 1021.75 944.846 1021.75Z"/>
</mask>
<path d="M279 982.637V973.361C279 961.034 282.428 951.403 289.284 944.467C296.184 937.489 305.87 934 318.343 934C324.27 934 329.732 934.815 334.73 936.444C339.729 938.074 343.864 940.372 347.137 943.339C349.349 945.344 351.074 947.496 352.312 949.794C353.551 952.051 354.17 954.161 354.17 956.125C354.17 958.632 353.329 960.658 351.649 962.204C350.012 963.708 347.867 964.461 345.213 964.461C343.444 964.461 341.829 964.126 340.37 963.458C338.954 962.747 337.384 961.557 335.659 959.885C334.023 957.921 332.364 956.334 330.683 955.122C329.047 953.91 327.322 953.012 325.508 952.427C323.739 951.8 321.793 951.487 319.67 951.487C313.699 951.487 309.077 953.471 305.804 957.441C302.575 961.41 300.96 967.03 300.96 974.301V981.696C300.96 989.385 302.553 995.276 305.737 999.371C308.966 1003.42 313.61 1005.45 319.67 1005.45C321.837 1005.45 323.85 1005.16 325.707 1004.57C327.609 1003.99 329.401 1003.09 331.081 1001.88C332.806 1000.62 334.443 999.058 335.991 997.177C337.76 995.464 339.33 994.273 340.702 993.605C342.073 992.895 343.599 992.539 345.279 992.539C347.933 992.539 350.101 993.312 351.781 994.858C353.462 996.363 354.302 998.368 354.302 1000.88C354.302 1003.34 353.462 1005.87 351.781 1008.46C350.101 1011.05 347.823 1013.37 344.948 1015.42C341.675 1017.8 337.782 1019.66 333.271 1020.99C328.804 1022.33 323.828 1023 318.343 1023C305.693 1023 295.962 1019.49 289.151 1012.47C282.384 1005.41 279 995.464 279 982.637Z" fill="#FFF8F8"/>
<path d="M379.58 1021.75C376.042 1021.75 373.299 1020.79 371.353 1018.86C369.451 1016.9 368.5 1014.14 368.5 1010.59V946.096C368.5 942.503 369.451 939.745 371.353 937.823C373.255 935.901 375.953 934.94 379.448 934.94C382.942 934.94 385.64 935.922 387.542 937.886C389.488 939.808 390.461 942.545 390.461 946.096V1010.59C390.461 1014.14 389.51 1016.9 387.608 1018.86C385.75 1020.79 383.074 1021.75 379.58 1021.75Z" fill="#FFF8F8"/>
<path d="M429.738 976.056H444.002C448.381 976.056 451.809 975.032 454.286 972.985C456.762 970.895 458.001 967.887 458.001 963.959C458.001 960.115 456.762 957.169 454.286 955.122C451.809 953.033 448.381 951.988 444.002 951.988H429.738V976.056ZM429.738 1010.59C429.738 1014.14 428.809 1016.9 426.951 1018.86C425.093 1020.79 422.417 1021.75 418.923 1021.75C415.385 1021.75 412.643 1020.79 410.696 1018.86C408.75 1016.9 407.777 1014.14 407.777 1010.59V950.546C407.777 945.449 409.016 941.688 411.493 939.265C414.014 936.8 417.862 935.567 423.037 935.567H446.988C457.161 935.567 465.166 937.949 471.005 942.712C476.843 947.434 479.762 953.889 479.762 962.079C479.762 967.469 478.413 972.212 475.715 976.306C473.061 980.359 469.28 983.472 464.37 985.645L476.18 1005.39C477.374 1007.35 477.971 1009.52 477.971 1011.91C477.971 1014.75 476.954 1017.09 474.919 1018.93C472.929 1020.72 470.319 1021.62 467.09 1021.62C464.215 1021.62 461.871 1020.97 460.058 1019.68C458.244 1018.34 456.453 1016.02 454.684 1012.72L442.741 990.722H429.738V1010.59Z" fill="#FFF8F8"/>
<path d="M515.324 976.056H529.588C533.967 976.056 537.395 975.032 539.872 972.985C542.349 970.895 543.587 967.887 543.587 963.959C543.587 960.115 542.349 957.169 539.872 955.122C537.395 953.033 533.967 951.988 529.588 951.988H515.324V976.056ZM515.324 1010.59C515.324 1014.14 514.395 1016.9 512.537 1018.86C510.679 1020.79 508.004 1021.75 504.509 1021.75C500.971 1021.75 498.229 1020.79 496.282 1018.86C494.336 1016.9 493.363 1014.14 493.363 1010.59V950.546C493.363 945.449 494.602 941.688 497.079 939.265C499.6 936.8 503.448 935.567 508.623 935.567H532.574C542.747 935.567 550.752 937.949 556.591 942.712C562.429 947.434 565.348 953.889 565.348 962.079C565.348 967.469 563.999 972.212 561.301 976.306C558.647 980.359 554.866 983.472 549.956 985.645L561.766 1005.39C562.96 1007.35 563.557 1009.52 563.557 1011.91C563.557 1014.75 562.54 1017.09 560.505 1018.93C558.515 1020.72 555.905 1021.62 552.676 1021.62C549.801 1021.62 547.457 1020.97 545.644 1019.68C543.83 1018.34 542.039 1016.02 540.27 1012.72L528.327 990.722H515.324V1010.59Z" fill="#FFF8F8"/>
<path d="M597.924 973.486V983.827C597.924 988.465 598.632 992.456 600.047 995.799C601.507 999.1 603.586 1001.65 606.284 1003.45C608.982 1005.2 612.211 1006.08 615.97 1006.08C619.73 1006.08 622.937 1005.2 625.59 1003.45C628.288 1001.65 630.345 999.1 631.761 995.799C633.22 992.456 633.95 988.465 633.95 983.827V973.486C633.95 968.764 633.22 964.732 631.761 961.389C630.345 958.005 628.288 955.414 625.59 953.618C622.937 951.821 619.73 950.923 615.97 950.923C612.211 950.923 608.982 951.821 606.284 953.618C603.586 955.414 601.507 958.005 600.047 961.389C598.632 964.732 597.924 968.764 597.924 973.486ZM575.964 983.827V973.611C575.964 965.38 577.556 958.318 580.741 952.427C583.925 946.493 588.481 941.939 594.408 938.763C600.379 935.588 607.566 934 615.97 934C624.374 934 631.539 935.588 637.466 938.763C643.437 941.939 647.993 946.493 651.134 952.427C654.318 958.318 655.91 965.38 655.91 973.611V983.827C655.91 991.975 654.318 998.974 651.134 1004.82C647.993 1010.67 643.437 1015.17 637.466 1018.3C631.539 1021.43 624.374 1023 615.97 1023C603.32 1023 593.479 1019.53 586.446 1012.6C579.458 1005.62 575.964 996.028 575.964 983.827Z" fill="#FFF8F8"/>
<path d="M690.742 1010.97C690.742 1014.35 689.857 1017 688.088 1018.93C686.363 1020.81 683.886 1021.75 680.657 1021.75C677.473 1021.75 674.974 1020.79 673.16 1018.86C671.347 1016.94 670.44 1014.31 670.44 1010.97V947.099C670.44 938.993 674.067 934.94 681.321 934.94C683.754 934.94 685.81 935.567 687.491 936.82C689.216 938.074 691.162 940.205 693.329 943.213L723.849 986.209H724.711V945.72C724.711 942.294 725.596 939.641 727.365 937.761C729.134 935.88 731.611 934.94 734.796 934.94C738.024 934.94 740.546 935.901 742.359 937.823C744.172 939.704 745.079 942.336 745.079 945.72V1010.21C745.079 1017.9 741.651 1021.75 734.796 1021.75C732.319 1021.75 730.196 1021.16 728.426 1019.99C726.657 1018.82 724.645 1016.67 722.389 1013.54L691.604 969.976H690.742V1010.97Z" fill="#FFF8F8"/>
<path d="M762.86 1009.27V947.413C762.86 943.569 763.966 940.644 766.177 938.638C768.389 936.591 771.551 935.567 775.665 935.567H798.421C811.779 935.567 821.93 939.202 828.874 946.473C835.862 953.743 839.357 964.356 839.357 978.312C839.357 992.268 835.862 1002.9 828.874 1010.21C821.93 1017.48 811.779 1021.12 798.421 1021.12H775.665C771.551 1021.12 768.389 1020.12 766.177 1018.11C763.966 1016.06 762.86 1013.12 762.86 1009.27ZM784.82 1004.64H795.038C802.601 1004.64 808.13 1002.53 811.624 998.306C815.162 994.044 816.932 987.379 816.932 978.312C816.932 969.245 815.162 962.601 811.624 958.381C808.086 954.119 802.557 951.988 795.038 951.988H784.82V1004.64Z" fill="#FFF8F8"/>
<path d="M912.072 1012.47C912.072 1015.02 911.187 1017.11 909.418 1018.74C907.693 1020.33 905.459 1021.12 902.717 1021.12H865.298C861.184 1021.12 858.022 1020.12 855.81 1018.11C853.643 1016.06 852.559 1013.12 852.559 1009.27V946.096C852.559 942.503 853.51 939.745 855.412 937.823C857.314 935.901 860.012 934.94 863.506 934.94C867.001 934.94 869.699 935.922 871.601 937.886C873.547 939.808 874.52 942.545 874.52 946.096V1003.82H902.717C905.459 1003.82 907.693 1004.64 909.418 1006.27C911.187 1007.85 912.072 1009.92 912.072 1012.47Z" fill="#FFF8F8"/>
<path d="M944.846 1021.75C941.441 1021.75 938.72 1020.79 936.686 1018.86C934.651 1016.94 933.678 1014.43 933.767 1011.34L934.231 988.967L910.877 952.615C909.772 950.818 908.953 949.272 908.422 947.977C907.936 946.64 907.693 945.365 907.693 944.154C907.693 941.354 908.622 939.098 910.479 937.385C912.381 935.671 914.836 934.815 917.844 934.815C920.188 934.815 922.178 935.4 923.815 936.57C925.495 937.74 927.066 939.662 928.525 942.336L944.382 970.979H945.178L961.499 942.399C962.87 939.85 964.44 937.949 966.21 936.695C968.023 935.442 970.014 934.815 972.181 934.815C975.012 934.815 977.356 935.671 979.213 937.385C981.071 939.098 982 941.229 982 943.777C982 945.031 981.712 946.368 981.137 947.789C980.562 949.209 979.634 950.923 978.351 952.928L955.329 988.967L955.727 1011.34C955.86 1014.43 954.909 1016.94 952.874 1018.86C950.84 1020.79 948.164 1021.75 944.846 1021.75Z" fill="#FFF8F8"/>
<path d="M279 982.637V973.361C279 961.034 282.428 951.403 289.284 944.467C296.184 937.489 305.87 934 318.343 934C324.27 934 329.732 934.815 334.73 936.444C339.729 938.074 343.864 940.372 347.137 943.339C349.349 945.344 351.074 947.496 352.312 949.794C353.551 952.051 354.17 954.161 354.17 956.125C354.17 958.632 353.329 960.658 351.649 962.204C350.012 963.708 347.867 964.461 345.213 964.461C343.444 964.461 341.829 964.126 340.37 963.458C338.954 962.747 337.384 961.557 335.659 959.885C334.023 957.921 332.364 956.334 330.683 955.122C329.047 953.91 327.322 953.012 325.508 952.427C323.739 951.8 321.793 951.487 319.67 951.487C313.699 951.487 309.077 953.471 305.804 957.441C302.575 961.41 300.96 967.03 300.96 974.301V981.696C300.96 989.385 302.553 995.276 305.737 999.371C308.966 1003.42 313.61 1005.45 319.67 1005.45C321.837 1005.45 323.85 1005.16 325.707 1004.57C327.609 1003.99 329.401 1003.09 331.081 1001.88C332.806 1000.62 334.443 999.058 335.991 997.177C337.76 995.464 339.33 994.273 340.702 993.605C342.073 992.895 343.599 992.539 345.279 992.539C347.933 992.539 350.101 993.312 351.781 994.858C353.462 996.363 354.302 998.368 354.302 1000.88C354.302 1003.34 353.462 1005.87 351.781 1008.46C350.101 1011.05 347.823 1013.37 344.948 1015.42C341.675 1017.8 337.782 1019.66 333.271 1020.99C328.804 1022.33 323.828 1023 318.343 1023C305.693 1023 295.962 1019.49 289.151 1012.47C282.384 1005.41 279 995.464 279 982.637Z" stroke="black" stroke-width="10" mask="url(#path-17-outside-1_363_2021)"/>
<path d="M379.58 1021.75C376.042 1021.75 373.299 1020.79 371.353 1018.86C369.451 1016.9 368.5 1014.14 368.5 1010.59V946.096C368.5 942.503 369.451 939.745 371.353 937.823C373.255 935.901 375.953 934.94 379.448 934.94C382.942 934.94 385.64 935.922 387.542 937.886C389.488 939.808 390.461 942.545 390.461 946.096V1010.59C390.461 1014.14 389.51 1016.9 387.608 1018.86C385.75 1020.79 383.074 1021.75 379.58 1021.75Z" stroke="black" stroke-width="10" mask="url(#path-17-outside-1_363_2021)"/>
<path d="M429.738 976.056H444.002C448.381 976.056 451.809 975.032 454.286 972.985C456.762 970.895 458.001 967.887 458.001 963.959C458.001 960.115 456.762 957.169 454.286 955.122C451.809 953.033 448.381 951.988 444.002 951.988H429.738V976.056ZM429.738 1010.59C429.738 1014.14 428.809 1016.9 426.951 1018.86C425.093 1020.79 422.417 1021.75 418.923 1021.75C415.385 1021.75 412.643 1020.79 410.696 1018.86C408.75 1016.9 407.777 1014.14 407.777 1010.59V950.546C407.777 945.449 409.016 941.688 411.493 939.265C414.014 936.8 417.862 935.567 423.037 935.567H446.988C457.161 935.567 465.166 937.949 471.005 942.712C476.843 947.434 479.762 953.889 479.762 962.079C479.762 967.469 478.413 972.212 475.715 976.306C473.061 980.359 469.28 983.472 464.37 985.645L476.18 1005.39C477.374 1007.35 477.971 1009.52 477.971 1011.91C477.971 1014.75 476.954 1017.09 474.919 1018.93C472.929 1020.72 470.319 1021.62 467.09 1021.62C464.215 1021.62 461.871 1020.97 460.058 1019.68C458.244 1018.34 456.453 1016.02 454.684 1012.72L442.741 990.722H429.738V1010.59Z" stroke="black" stroke-width="10" mask="url(#path-17-outside-1_363_2021)"/>
<path d="M515.324 976.056H529.588C533.967 976.056 537.395 975.032 539.872 972.985C542.349 970.895 543.587 967.887 543.587 963.959C543.587 960.115 542.349 957.169 539.872 955.122C537.395 953.033 533.967 951.988 529.588 951.988H515.324V976.056ZM515.324 1010.59C515.324 1014.14 514.395 1016.9 512.537 1018.86C510.679 1020.79 508.004 1021.75 504.509 1021.75C500.971 1021.75 498.229 1020.79 496.282 1018.86C494.336 1016.9 493.363 1014.14 493.363 1010.59V950.546C493.363 945.449 494.602 941.688 497.079 939.265C499.6 936.8 503.448 935.567 508.623 935.567H532.574C542.747 935.567 550.752 937.949 556.591 942.712C562.429 947.434 565.348 953.889 565.348 962.079C565.348 967.469 563.999 972.212 561.301 976.306C558.647 980.359 554.866 983.472 549.956 985.645L561.766 1005.39C562.96 1007.35 563.557 1009.52 563.557 1011.91C563.557 1014.75 562.54 1017.09 560.505 1018.93C558.515 1020.72 555.905 1021.62 552.676 1021.62C549.801 1021.62 547.457 1020.97 545.644 1019.68C543.83 1018.34 542.039 1016.02 540.27 1012.72L528.327 990.722H515.324V1010.59Z" stroke="black" stroke-width="10" mask="url(#path-17-outside-1_363_2021)"/>
<path d="M597.924 973.486V983.827C597.924 988.465 598.632 992.456 600.047 995.799C601.507 999.1 603.586 1001.65 606.284 1003.45C608.982 1005.2 612.211 1006.08 615.97 1006.08C619.73 1006.08 622.937 1005.2 625.59 1003.45C628.288 1001.65 630.345 999.1 631.761 995.799C633.22 992.456 633.95 988.465 633.95 983.827V973.486C633.95 968.764 633.22 964.732 631.761 961.389C630.345 958.005 628.288 955.414 625.59 953.618C622.937 951.821 619.73 950.923 615.97 950.923C612.211 950.923 608.982 951.821 606.284 953.618C603.586 955.414 601.507 958.005 600.047 961.389C598.632 964.732 597.924 968.764 597.924 973.486ZM575.964 983.827V973.611C575.964 965.38 577.556 958.318 580.741 952.427C583.925 946.493 588.481 941.939 594.408 938.763C600.379 935.588 607.566 934 615.97 934C624.374 934 631.539 935.588 637.466 938.763C643.437 941.939 647.993 946.493 651.134 952.427C654.318 958.318 655.91 965.38 655.91 973.611V983.827C655.91 991.975 654.318 998.974 651.134 1004.82C647.993 1010.67 643.437 1015.17 637.466 1018.3C631.539 1021.43 624.374 1023 615.97 1023C603.32 1023 593.479 1019.53 586.446 1012.6C579.458 1005.62 575.964 996.028 575.964 983.827Z" stroke="black" stroke-width="10" mask="url(#path-17-outside-1_363_2021)"/>
<path d="M690.742 1010.97C690.742 1014.35 689.857 1017 688.088 1018.93C686.363 1020.81 683.886 1021.75 680.657 1021.75C677.473 1021.75 674.974 1020.79 673.16 1018.86C671.347 1016.94 670.44 1014.31 670.44 1010.97V947.099C670.44 938.993 674.067 934.94 681.321 934.94C683.754 934.94 685.81 935.567 687.491 936.82C689.216 938.074 691.162 940.205 693.329 943.213L723.849 986.209H724.711V945.72C724.711 942.294 725.596 939.641 727.365 937.761C729.134 935.88 731.611 934.94 734.796 934.94C738.024 934.94 740.546 935.901 742.359 937.823C744.172 939.704 745.079 942.336 745.079 945.72V1010.21C745.079 1017.9 741.651 1021.75 734.796 1021.75C732.319 1021.75 730.196 1021.16 728.426 1019.99C726.657 1018.82 724.645 1016.67 722.389 1013.54L691.604 969.976H690.742V1010.97Z" stroke="black" stroke-width="10" mask="url(#path-17-outside-1_363_2021)"/>
<path d="M762.86 1009.27V947.413C762.86 943.569 763.966 940.644 766.177 938.638C768.389 936.591 771.551 935.567 775.665 935.567H798.421C811.779 935.567 821.93 939.202 828.874 946.473C835.862 953.743 839.357 964.356 839.357 978.312C839.357 992.268 835.862 1002.9 828.874 1010.21C821.93 1017.48 811.779 1021.12 798.421 1021.12H775.665C771.551 1021.12 768.389 1020.12 766.177 1018.11C763.966 1016.06 762.86 1013.12 762.86 1009.27ZM784.82 1004.64H795.038C802.601 1004.64 808.13 1002.53 811.624 998.306C815.162 994.044 816.932 987.379 816.932 978.312C816.932 969.245 815.162 962.601 811.624 958.381C808.086 954.119 802.557 951.988 795.038 951.988H784.82V1004.64Z" stroke="black" stroke-width="10" mask="url(#path-17-outside-1_363_2021)"/>
<path d="M912.072 1012.47C912.072 1015.02 911.187 1017.11 909.418 1018.74C907.693 1020.33 905.459 1021.12 902.717 1021.12H865.298C861.184 1021.12 858.022 1020.12 855.81 1018.11C853.643 1016.06 852.559 1013.12 852.559 1009.27V946.096C852.559 942.503 853.51 939.745 855.412 937.823C857.314 935.901 860.012 934.94 863.506 934.94C867.001 934.94 869.699 935.922 871.601 937.886C873.547 939.808 874.52 942.545 874.52 946.096V1003.82H902.717C905.459 1003.82 907.693 1004.64 909.418 1006.27C911.187 1007.85 912.072 1009.92 912.072 1012.47Z" stroke="black" stroke-width="10" mask="url(#path-17-outside-1_363_2021)"/>
<path d="M944.846 1021.75C941.441 1021.75 938.72 1020.79 936.686 1018.86C934.651 1016.94 933.678 1014.43 933.767 1011.34L934.231 988.967L910.877 952.615C909.772 950.818 908.953 949.272 908.422 947.977C907.936 946.64 907.693 945.365 907.693 944.154C907.693 941.354 908.622 939.098 910.479 937.385C912.381 935.671 914.836 934.815 917.844 934.815C920.188 934.815 922.178 935.4 923.815 936.57C925.495 937.74 927.066 939.662 928.525 942.336L944.382 970.979H945.178L961.499 942.399C962.87 939.85 964.44 937.949 966.21 936.695C968.023 935.442 970.014 934.815 972.181 934.815C975.012 934.815 977.356 935.671 979.213 937.385C981.071 939.098 982 941.229 982 943.777C982 945.031 981.712 946.368 981.137 947.789C980.562 949.209 979.634 950.923 978.351 952.928L955.329 988.967L955.727 1011.34C955.86 1014.43 954.909 1016.94 952.874 1018.86C950.84 1020.79 948.164 1021.75 944.846 1021.75Z" stroke="black" stroke-width="10" mask="url(#path-17-outside-1_363_2021)"/>
<defs>
<linearGradient id="paint0_linear_363_2021" x1="630" y1="0" x2="630" y2="1260" gradientUnits="userSpaceOnUse">
<stop stop-color="#1C53B0"/>
<stop offset="1" stop-color="#B6CAEB"/>
</linearGradient>
<linearGradient id="paint1_linear_363_2021" x1="630.133" y1="89" x2="630.133" y2="806.606" gradientUnits="userSpaceOnUse">
<stop stop-color="#FFF8F8"/>
<stop offset="1" stop-color="#EAF2FF"/>
</linearGradient>
</defs>
</svg>
