<svg width="1024" height="1024" viewBox="0 0 1024 1024" fill="none" xmlns="http://www.w3.org/2000/svg">
  <rect width="1024" height="1024" fill="url(#iconBackground)"/>
  <g transform="translate(42 175) scale(0.8318584071)">
    <path d="M601.527 2.5C783.628 2.5 932.577 151.014 943.773 338.595L943.999 338.595C944.149 338.594 944.299 338.594 944.449 338.594C1045.14 338.594 1126.76 423.998 1126.76 529.35C1126.76 634.702 1045.14 720.106 944.449 720.106H601.527H258.605C117.161 720.106 2.5 600.133 2.5 452.139C2.5 304.145 117.161 184.172 258.605 184.172C273.136 184.172 287.384 185.439 301.254 187.871C359.692 77.3412 472.256 2.5 601.527 2.5Z" fill="url(#cloudFill)" stroke="#0B0E17" stroke-width="5" stroke-linejoin="round"/>
    <path d="M251.783 703.119C263.625 703.252 275.467 703.379 287.309 703.499C393.885 704.579 500.461 705.119 607.037 705.119C713.613 705.119 820.189 704.579 926.766 703.499C938.607 703.379 950.449 703.252 962.291 703.119C950.449 702.986 938.607 702.859 926.766 702.739C820.189 701.659 713.613 701.119 607.037 701.119C500.461 701.119 393.885 701.659 287.309 702.739C275.467 702.859 263.625 702.986 251.783 703.119Z" fill="#0B0E17"/>
    <path d="M250.283 696.297C260.174 696.33 270.064 696.362 279.955 696.392C368.97 696.662 457.985 696.797 546.999 696.797C636.014 696.797 725.029 696.662 814.044 696.392C823.935 696.362 833.825 696.33 843.716 696.297C833.825 696.264 823.935 696.232 814.044 696.202C725.029 695.932 636.014 695.797 546.999 695.797C457.985 695.797 368.97 695.932 279.955 696.202C270.064 696.232 260.174 696.264 250.283 696.297Z" fill="#0B0E17"/>
    <path d="M250.033 690.603C258.941 690.619 267.85 690.635 276.758 690.65C356.931 690.785 437.104 690.853 517.278 690.853C597.451 690.853 677.625 690.785 757.798 690.65C766.706 690.635 775.614 690.619 784.522 690.603C775.614 690.586 766.706 690.57 757.798 690.555C677.625 690.42 597.451 690.353 517.278 690.353C437.104 690.353 356.931 690.42 276.758 690.555C267.85 690.57 258.941 690.586 250.033 690.603Z" fill="#0B0E17"/>
    <path d="M916.143 343.109C912.724 342.541 909.086 342.395 905.607 342.494C873.782 344.353 843.785 358.514 818.555 377.339C793.316 396.415 773.182 422.5 762.486 452.487C761.278 455.838 760.208 459.139 759.213 462.59C760.079 459.104 761.029 455.763 762.126 452.364C771.804 421.947 791.809 395.021 817.345 375.747C842.845 356.7 873.538 342.888 905.603 342.114C909.101 342.135 912.748 342.409 916.143 343.109Z" fill="#0B0E17"/>
  </g>
  <defs>
    <linearGradient id="iconBackground" x1="512" y1="0" x2="512" y2="1024" gradientUnits="userSpaceOnUse">
      <stop stop-color="#1C53B0"/>
      <stop offset="1" stop-color="#B6CAEB"/>
    </linearGradient>
    <linearGradient id="cloudFill" x1="564.633" y1="2.5" x2="564.633" y2="720.106" gradientUnits="userSpaceOnUse">
      <stop stop-color="#FFF8F8"/>
      <stop offset="1" stop-color="#EAF2FF"/>
    </linearGradient>
  </defs>
</svg>